STARTFONT 2.1
COMMENT Copyright (C) 2022 by Andrew G. Crowell. Creative Commons Attribution 4.0 International License (CC BY 4.0).
COMMENT om_large_hshadow_outline.bdf
FONT -eggboycolor-omelette_large_hshadow_outline-medium-r-normal--16-100-72-72-m-90-ISO8859-1
SIZE 16 72 72
FONTBOUNDINGBOX 16 16 0 -2
STARTPROPERTIES 13
FONT_ASCENT 14 
FONT_DESCENT 2
PIXEL_SIZE 16
POINT_SIZE 100
RESOLUTION_X 72
RESOLUTION_Y 72
SPACING "C"
DEFAULT_CHAR 32
AVERAGE_WIDTH 90
CHARSET_REGISTRY "ISO8859"
CHARSET_ENCODING "1"
FOUNDRY "eggboycolor"
COPYRIGHT "Copyright (C) 2022 by Andrew G. Crowell. Creative Commons Attribution 4.0 International License (CC BY 4.0)."
ENDPROPERTIES
CHARS 96
STARTCHAR char32
ENCODING 32
SWIDTH 1600 0
DWIDTH 16 0
BBX 16 16 0 -2
BITMAP
0000
0000
0000
0000
0000
0000
0000
0000
0000
0000
0000
0000
0000
0000
0000
0000
ENDCHAR
STARTCHAR char33
ENCODING 33
SWIDTH 1600 0
DWIDTH 16 0
BBX 16 16 0 -2
BITMAP
0000
0008
0004
0004
0004
0008
0010
0020
0020
0040
0000
0000
0040
0040
0000
0000
ENDCHAR
STARTCHAR char34
ENCODING 34
SWIDTH 1600 0
DWIDTH 16 0
BBX 16 16 0 -2
BITMAP
0000
0000
0108
0108
0108
0210
0000
0000
0000
0000
0000
0000
0000
0000
0000
0000
ENDCHAR
STARTCHAR char35
ENCODING 35
SWIDTH 1600 0
DWIDTH 16 0
BBX 16 16 0 -2
BITMAP
0000
0000
0044
0044
0088
0088
0002
0110
0110
0004
0220
0220
0440
0440
0000
0000
ENDCHAR
STARTCHAR char36
ENCODING 36
SWIDTH 1600 0
DWIDTH 16 0
BBX 16 16 0 -2
BITMAP
0000
0040
0040
0004
0240
0440
0240
0008
0044
0044
0044
0008
0040
0040
0000
0000
ENDCHAR
STARTCHAR char37
ENCODING 37
SWIDTH 1600 0
DWIDTH 16 0
BBX 16 16 0 -2
BITMAP
0000
0204
1104
1104
1108
0210
0020
0040
0080
0104
0222
0422
0822
1004
0000
0000
ENDCHAR
STARTCHAR char38
ENCODING 38
SWIDTH 1600 0
DWIDTH 16 0
BBX 16 16 0 -2
BITMAP
0000
0040
0120
0210
0210
0210
0120
0042
0044
0208
0408
0404
0212
0022
0000
0000
ENDCHAR
STARTCHAR char39
ENCODING 39
SWIDTH 1600 0
DWIDTH 16 0
BBX 16 16 0 -2
BITMAP
0000
0000
0040
0040
0040
0080
0000
0000
0000
0000
0000
0000
0000
0000
0000
0000
ENDCHAR
STARTCHAR char40
ENCODING 40
SWIDTH 1600 0
DWIDTH 16 0
BBX 16 16 0 -2
BITMAP
0000
0010
0020
0040
0040
0040
0040
0040
0040
0040
0040
0040
0020
0010
0000
0000
ENDCHAR
STARTCHAR char41
ENCODING 41
SWIDTH 1600 0
DWIDTH 16 0
BBX 16 16 0 -2
BITMAP
0000
0080
0040
0040
0020
0020
0020
0020
0020
0020
0020
0040
0040
0080
0000
0000
ENDCHAR
STARTCHAR char42
ENCODING 42
SWIDTH 1600 0
DWIDTH 16 0
BBX 16 16 0 -2
BITMAP
0000
0000
0000
0040
0040
0248
0008
0020
0008
0248
0040
0040
0000
0000
0000
0000
ENDCHAR
STARTCHAR char43
ENCODING 43
SWIDTH 1600 0
DWIDTH 16 0
BBX 16 16 0 -2
BITMAP
0000
0000
0000
0000
0040
0040
0040
0040
0004
0004
0040
0040
0040
0040
0000
0000
ENDCHAR
STARTCHAR char44
ENCODING 44
SWIDTH 1600 0
DWIDTH 16 0
BBX 16 16 0 -2
BITMAP
0000
0000
0000
0000
0000
0000
0000
0000
0000
0000
0000
0040
0040
0040
0080
0000
ENDCHAR
STARTCHAR char45
ENCODING 45
SWIDTH 1600 0
DWIDTH 16 0
BBX 16 16 0 -2
BITMAP
0000
0000
0000
0000
0000
0000
0000
0000
0008
0008
0000
0000
0000
0000
0000
0000
ENDCHAR
STARTCHAR char46
ENCODING 46
SWIDTH 1600 0
DWIDTH 16 0
BBX 16 16 0 -2
BITMAP
0000
0000
0000
0000
0000
0000
0000
0000
0000
0000
0000
0040
0040
0040
0000
0000
ENDCHAR
STARTCHAR char47
ENCODING 47
SWIDTH 1600 0
DWIDTH 16 0
BBX 16 16 0 -2
BITMAP
0000
0008
0008
0008
0010
0010
0020
0020
0040
0040
0080
0080
0100
0100
0000
0000
ENDCHAR
STARTCHAR char48
ENCODING 48
SWIDTH 1600 0
DWIDTH 16 0
BBX 16 16 0 -2
BITMAP
0000
0010
0004
0104
0202
0202
0202
0242
0082
0102
0202
0104
0004
0010
0000
0000
ENDCHAR
STARTCHAR char49
ENCODING 49
SWIDTH 1600 0
DWIDTH 16 0
BBX 16 16 0 -2
BITMAP
0000
0020
0020
0020
0020
0020
0020
0020
0020
0020
0020
0020
0008
0008
0000
0000
ENDCHAR
STARTCHAR char50
ENCODING 50
SWIDTH 1600 0
DWIDTH 16 0
BBX 16 16 0 -2
BITMAP
0000
0008
0004
0202
0402
0002
0004
0008
0010
0020
0040
0080
0002
0002
0000
0000
ENDCHAR
STARTCHAR char51
ENCODING 51
SWIDTH 1600 0
DWIDTH 16 0
BBX 16 16 0 -2
BITMAP
0000
0008
0004
0202
0402
0004
0008
0004
0002
0002
0402
0202
0004
0008
0000
0000
ENDCHAR
STARTCHAR char52
ENCODING 52
SWIDTH 1600 0
DWIDTH 16 0
BBX 16 16 0 -2
BITMAP
0000
0104
0104
0204
0204
0404
0001
0001
0004
0004
0004
0004
0004
0004
0000
0000
ENDCHAR
STARTCHAR char53
ENCODING 53
SWIDTH 1600 0
DWIDTH 16 0
BBX 16 16 0 -2
BITMAP
0000
0002
0002
0200
0200
0200
0008
0004
0002
0002
0002
0002
0004
0008
0000
0000
ENDCHAR
STARTCHAR char54
ENCODING 54
SWIDTH 1600 0
DWIDTH 16 0
BBX 16 16 0 -2
BITMAP
0000
0010
0020
0040
0080
0008
0004
0202
0402
0402
0402
0202
0004
0008
0000
0000
ENDCHAR
STARTCHAR char55
ENCODING 55
SWIDTH 1600 0
DWIDTH 16 0
BBX 16 16 0 -2
BITMAP
0000
0002
0002
0002
0002
0004
0008
0010
0020
0040
0040
0040
0040
0040
0000
0000
ENDCHAR
STARTCHAR char56
ENCODING 56
SWIDTH 1600 0
DWIDTH 16 0
BBX 16 16 0 -2
BITMAP
0000
0010
0004
0202
0402
0202
0004
0008
0204
0402
0402
0202
0004
0010
0000
0000
ENDCHAR
STARTCHAR char57
ENCODING 57
SWIDTH 1600 0
DWIDTH 16 0
BBX 16 16 0 -2
BITMAP
0000
0008
0004
0202
0402
0402
0202
0002
0004
0008
0010
0020
0040
0080
0000
0000
ENDCHAR
STARTCHAR char58
ENCODING 58
SWIDTH 1600 0
DWIDTH 16 0
BBX 16 16 0 -2
BITMAP
0000
0000
0000
0000
0000
0040
0040
0040
0000
0000
0000
0040
0040
0040
0000
0000
ENDCHAR
STARTCHAR char59
ENCODING 59
SWIDTH 1600 0
DWIDTH 16 0
BBX 16 16 0 -2
BITMAP
0000
0000
0000
0000
0000
0040
0040
0040
0000
0000
0000
0040
0040
0040
0080
0000
ENDCHAR
STARTCHAR char60
ENCODING 60
SWIDTH 1600 0
DWIDTH 16 0
BBX 16 16 0 -2
BITMAP
0000
0000
0000
0000
0000
0000
0008
0008
0020
0080
0020
0008
0008
0000
0000
0000
ENDCHAR
STARTCHAR char61
ENCODING 61
SWIDTH 1600 0
DWIDTH 16 0
BBX 16 16 0 -2
BITMAP
0000
0000
0000
0000
0000
0000
0004
0004
0000
0000
0000
0004
0004
0000
0000
0000
ENDCHAR
STARTCHAR char62
ENCODING 62
SWIDTH 1600 0
DWIDTH 16 0
BBX 16 16 0 -2
BITMAP
0000
0000
0000
0000
0000
0000
0200
0080
0020
0008
0020
0080
0200
0000
0000
0000
ENDCHAR
STARTCHAR char63
ENCODING 63
SWIDTH 1600 0
DWIDTH 16 0
BBX 16 16 0 -2
BITMAP
0000
0008
0004
0102
0202
0002
0004
0010
0040
0040
0000
0000
0040
0040
0000
0000
ENDCHAR
STARTCHAR char64
ENCODING 64
SWIDTH 1600 0
DWIDTH 16 0
BBX 16 16 0 -2
BITMAP
0000
0010
0204
0402
0822
0911
1211
1211
1242
1084
0800
0410
0020
0000
0000
0000
ENDCHAR
STARTCHAR char65
ENCODING 65
SWIDTH 1600 0
DWIDTH 16 0
BBX 16 16 0 -2
BITMAP
0000
0010
0008
0204
0202
0202
0202
0002
0002
0202
0202
0202
0202
0202
0000
0000
ENDCHAR
STARTCHAR char66
ENCODING 66
SWIDTH 1600 0
DWIDTH 16 0
BBX 16 16 0 -2
BITMAP
0000
0008
0004
0202
0202
0202
0204
0008
0204
0202
0202
0202
0004
0008
0000
0000
ENDCHAR
STARTCHAR char67
ENCODING 67
SWIDTH 1600 0
DWIDTH 16 0
BBX 16 16 0 -2
BITMAP
0000
0008
0004
0102
0202
0200
0200
0200
0200
0200
0202
0102
0004
0008
0000
0000
ENDCHAR
STARTCHAR char68
ENCODING 68
SWIDTH 1600 0
DWIDTH 16 0
BBX 16 16 0 -2
BITMAP
0000
0010
0004
0204
0202
0202
0202
0202
0202
0202
0202
0204
0004
0010
0000
0000
ENDCHAR
STARTCHAR char69
ENCODING 69
SWIDTH 1600 0
DWIDTH 16 0
BBX 16 16 0 -2
BITMAP
0000
0002
0002
0200
0200
0200
0002
0002
0200
0200
0200
0200
0002
0002
0000
0000
ENDCHAR
STARTCHAR char70
ENCODING 70
SWIDTH 1600 0
DWIDTH 16 0
BBX 16 16 0 -2
BITMAP
0000
0002
0002
0200
0200
0200
0002
0002
0200
0200
0200
0200
0200
0200
0000
0000
ENDCHAR
STARTCHAR char71
ENCODING 71
SWIDTH 1600 0
DWIDTH 16 0
BBX 16 16 0 -2
BITMAP
0000
0008
0004
0202
0402
0400
0400
0402
0402
0402
0402
0202
0004
0008
0000
0000
ENDCHAR
STARTCHAR char72
ENCODING 72
SWIDTH 1600 0
DWIDTH 16 0
BBX 16 16 0 -2
BITMAP
0000
0202
0202
0202
0202
0202
0002
0002
0002
0202
0202
0202
0202
0202
0000
0000
ENDCHAR
STARTCHAR char73
ENCODING 73
SWIDTH 1600 0
DWIDTH 16 0
BBX 16 16 0 -2
BITMAP
0000
0002
0002
0020
0020
0020
0020
0020
0020
0020
0020
0020
0002
0002
0000
0000
ENDCHAR
STARTCHAR char74
ENCODING 74
SWIDTH 1600 0
DWIDTH 16 0
BBX 16 16 0 -2
BITMAP
0000
0002
0002
0002
0002
0002
0002
0002
0002
0002
0202
0202
0004
0010
0000
0000
ENDCHAR
STARTCHAR char75
ENCODING 75
SWIDTH 1600 0
DWIDTH 16 0
BBX 16 16 0 -2
BITMAP
0000
0201
0202
0204
0208
0010
0020
0040
0020
0010
0208
0204
0202
0201
0000
0000
ENDCHAR
STARTCHAR char76
ENCODING 76
SWIDTH 1600 0
DWIDTH 16 0
BBX 16 16 0 -2
BITMAP
0000
0200
0200
0200
0200
0200
0200
0200
0200
0200
0200
0200
0002
0002
0000
0000
ENDCHAR
STARTCHAR char77
ENCODING 77
SWIDTH 1600 0
DWIDTH 16 0
BBX 16 16 0 -2
BITMAP
0000
0801
0401
0201
0101
0001
0421
0441
0401
0401
0401
0401
0401
0401
0000
0000
ENDCHAR
STARTCHAR char78
ENCODING 78
SWIDTH 1600 0
DWIDTH 16 0
BBX 16 16 0 -2
BITMAP
0000
0802
0402
0202
0102
0082
0042
0002
0202
0202
0202
0202
0202
0202
0000
0000
ENDCHAR
STARTCHAR char79
ENCODING 79
SWIDTH 1600 0
DWIDTH 16 0
BBX 16 16 0 -2
BITMAP
0000
0020
0008
0104
0204
0202
0202
0202
0202
0202
0204
0104
0008
0020
0000
0000
ENDCHAR
STARTCHAR char80
ENCODING 80
SWIDTH 1600 0
DWIDTH 16 0
BBX 16 16 0 -2
BITMAP
0000
0010
0004
0202
0202
0202
0202
0004
0010
0200
0200
0200
0200
0200
0000
0000
ENDCHAR
STARTCHAR char81
ENCODING 81
SWIDTH 1600 0
DWIDTH 16 0
BBX 16 16 0 -2
BITMAP
0000
0020
0008
0104
0204
0202
0202
0202
0202
0242
0204
0104
0008
0044
0002
0000
ENDCHAR
STARTCHAR char82
ENCODING 82
SWIDTH 1600 0
DWIDTH 16 0
BBX 16 16 0 -2
BITMAP
0000
0010
0004
0202
0202
0202
0204
0008
0020
0210
0208
0204
0202
0202
0000
0000
ENDCHAR
STARTCHAR char83
ENCODING 83
SWIDTH 1600 0
DWIDTH 16 0
BBX 16 16 0 -2
BITMAP
0000
0008
0004
0202
0400
0400
0008
0004
0002
0002
0002
0202
0004
0008
0000
0000
ENDCHAR
STARTCHAR char84
ENCODING 84
SWIDTH 1600 0
DWIDTH 16 0
BBX 16 16 0 -2
BITMAP
0000
0002
0002
0020
0020
0020
0020
0020
0020
0020
0020
0020
0020
0020
0000
0000
ENDCHAR
STARTCHAR char85
ENCODING 85
SWIDTH 1600 0
DWIDTH 16 0
BBX 16 16 0 -2
BITMAP
0000
0202
0202
0202
0202
0202
0202
0202
0202
0202
0202
0204
0004
0010
0000
0000
ENDCHAR
STARTCHAR char86
ENCODING 86
SWIDTH 1600 0
DWIDTH 16 0
BBX 16 16 0 -2
BITMAP
0000
0202
0202
0202
0202
0202
0202
0202
0202
0204
0108
0010
0020
0040
0000
0000
ENDCHAR
STARTCHAR char87
ENCODING 87
SWIDTH 1600 0
DWIDTH 16 0
BBX 16 16 0 -2
BITMAP
0000
0401
0401
0401
0401
0401
0401
0441
0421
0001
0101
0201
0401
0801
0000
0000
ENDCHAR
STARTCHAR char88
ENCODING 88
SWIDTH 1600 0
DWIDTH 16 0
BBX 16 16 0 -2
BITMAP
0000
0202
0202
0202
0204
0108
0010
0020
0010
0108
0204
0202
0202
0202
0000
0000
ENDCHAR
STARTCHAR char89
ENCODING 89
SWIDTH 1600 0
DWIDTH 16 0
BBX 16 16 0 -2
BITMAP
0000
0202
0202
0202
0202
0102
0004
0008
0010
0020
0020
0020
0020
0020
0000
0000
ENDCHAR
STARTCHAR char90
ENCODING 90
SWIDTH 1600 0
DWIDTH 16 0
BBX 16 16 0 -2
BITMAP
0000
0002
0002
0002
0004
0008
0010
0020
0040
0080
0100
0200
0002
0002
0000
0000
ENDCHAR
STARTCHAR char91
ENCODING 91
SWIDTH 1600 0
DWIDTH 16 0
BBX 16 16 0 -2
BITMAP
0000
0020
0020
0080
0080
0080
0080
0080
0080
0080
0080
0080
0020
0020
0000
0000
ENDCHAR
STARTCHAR char92
ENCODING 92
SWIDTH 1600 0
DWIDTH 16 0
BBX 16 16 0 -2
BITMAP
0000
0100
0100
0080
0080
0040
0040
0020
0020
0010
0010
0008
0008
0008
0000
0000
ENDCHAR
STARTCHAR char93
ENCODING 93
SWIDTH 1600 0
DWIDTH 16 0
BBX 16 16 0 -2
BITMAP
0000
0020
0020
0020
0020
0020
0020
0020
0020
0020
0020
0020
0020
0020
0000
0000
ENDCHAR
STARTCHAR char94
ENCODING 94
SWIDTH 1600 0
DWIDTH 16 0
BBX 16 16 0 -2
BITMAP
0000
0040
0020
0010
0108
0208
0000
0000
0000
0000
0000
0000
0000
0000
0000
0000
ENDCHAR
STARTCHAR char95
ENCODING 95
SWIDTH 1600 0
DWIDTH 16 0
BBX 16 16 0 -2
BITMAP
0000
0000
0000
0000
0000
0000
0000
0000
0000
0000
0000
0000
0004
0004
0000
0000
ENDCHAR
STARTCHAR char96
ENCODING 96
SWIDTH 1600 0
DWIDTH 16 0
BBX 16 16 0 -2
BITMAP
0000
0080
0040
0020
0020
0000
0000
0000
0000
0000
0000
0000
0000
0000
0000
0000
ENDCHAR
STARTCHAR char97
ENCODING 97
SWIDTH 1600 0
DWIDTH 16 0
BBX 16 16 0 -2
BITMAP
0000
0000
0000
0000
0010
0004
0084
0102
0202
0202
0202
0102
0022
0042
0000
0000
ENDCHAR
STARTCHAR char98
ENCODING 98
SWIDTH 1600 0
DWIDTH 16 0
BBX 16 16 0 -2
BITMAP
0000
0000
0200
0200
0200
0210
0008
0104
0202
0202
0202
0202
0004
0008
0000
0000
ENDCHAR
STARTCHAR char99
ENCODING 99
SWIDTH 1600 0
DWIDTH 16 0
BBX 16 16 0 -2
BITMAP
0000
0000
0000
0000
0010
0004
0102
0202
0200
0200
0202
0102
0004
0010
0000
0000
ENDCHAR
STARTCHAR char100
ENCODING 100
SWIDTH 1600 0
DWIDTH 16 0
BBX 16 16 0 -2
BITMAP
0000
0000
0002
0002
0002
0042
0002
0102
0202
0202
0202
0102
0002
0002
0000
0000
ENDCHAR
STARTCHAR char101
ENCODING 101
SWIDTH 1600 0
DWIDTH 16 0
BBX 16 16 0 -2
BITMAP
0000
0000
0000
0000
0010
0004
0104
0202
0002
0002
0200
0200
0002
0004
0000
0000
ENDCHAR
STARTCHAR char102
ENCODING 102
SWIDTH 1600 0
DWIDTH 16 0
BBX 16 16 0 -2
BITMAP
0000
0002
0002
0020
0020
0020
0004
0004
0020
0020
0020
0020
0020
0020
0000
0000
ENDCHAR
STARTCHAR char103
ENCODING 103
SWIDTH 1600 0
DWIDTH 16 0
BBX 16 16 0 -2
BITMAP
0000
0000
0000
0000
0002
0002
0102
0202
0102
0002
0002
0002
0002
0004
0008
0000
ENDCHAR
STARTCHAR char104
ENCODING 104
SWIDTH 1600 0
DWIDTH 16 0
BBX 16 16 0 -2
BITMAP
0000
0200
0200
0200
0200
0008
0004
0204
0202
0202
0202
0202
0202
0202
0000
0000
ENDCHAR
STARTCHAR char105
ENCODING 105
SWIDTH 1600 0
DWIDTH 16 0
BBX 16 16 0 -2
BITMAP
0000
0020
0020
0000
0000
0020
0020
0020
0020
0020
0020
0020
0020
0010
0000
0000
ENDCHAR
STARTCHAR char106
ENCODING 106
SWIDTH 1600 0
DWIDTH 16 0
BBX 16 16 0 -2
BITMAP
0000
0004
0004
0000
0000
0004
0004
0004
0004
0004
0204
0204
0204
0008
0010
0000
ENDCHAR
STARTCHAR char107
ENCODING 107
SWIDTH 1600 0
DWIDTH 16 0
BBX 16 16 0 -2
BITMAP
0000
0100
0100
0100
0100
0100
0104
0108
0010
0020
0010
0108
0104
0102
0000
0000
ENDCHAR
STARTCHAR char108
ENCODING 108
SWIDTH 1600 0
DWIDTH 16 0
BBX 16 16 0 -2
BITMAP
0000
0020
0020
0020
0020
0020
0020
0020
0020
0020
0020
0020
0008
0008
0000
0000
ENDCHAR
STARTCHAR char109
ENCODING 109
SWIDTH 1600 0
DWIDTH 16 0
BBX 16 16 0 -2
BITMAP
0000
0000
0000
0000
0202
0101
0001
0001
0421
0441
0401
0401
0401
0401
0000
0000
ENDCHAR
STARTCHAR char110
ENCODING 110
SWIDTH 1600 0
DWIDTH 16 0
BBX 16 16 0 -2
BITMAP
0000
0000
0000
0000
0010
0008
0004
0204
0202
0202
0202
0202
0202
0202
0000
0000
ENDCHAR
STARTCHAR char111
ENCODING 111
SWIDTH 1600 0
DWIDTH 16 0
BBX 16 16 0 -2
BITMAP
0000
0000
0000
0000
0020
0008
0104
0202
0202
0202
0202
0104
0008
0020
0000
0000
ENDCHAR
STARTCHAR char112
ENCODING 112
SWIDTH 1600 0
DWIDTH 16 0
BBX 16 16 0 -2
BITMAP
0000
0000
0000
0000
0020
0008
0204
0202
0202
0202
0004
0008
0200
0200
0200
0000
ENDCHAR
STARTCHAR char113
ENCODING 113
SWIDTH 1600 0
DWIDTH 16 0
BBX 16 16 0 -2
BITMAP
0000
0000
0000
0000
0008
0008
0208
0408
0808
0408
0009
0082
0004
0008
0010
0000
ENDCHAR
STARTCHAR char114
ENCODING 114
SWIDTH 1600 0
DWIDTH 16 0
BBX 16 16 0 -2
BITMAP
0000
0000
0000
0000
0208
0204
0002
0082
0102
0200
0200
0200
0200
0200
0000
0000
ENDCHAR
STARTCHAR char115
ENCODING 115
SWIDTH 1600 0
DWIDTH 16 0
BBX 16 16 0 -2
BITMAP
0000
0000
0000
0000
0004
0002
0200
0400
0008
0004
0002
0002
0004
0008
0000
0000
ENDCHAR
STARTCHAR char116
ENCODING 116
SWIDTH 1600 0
DWIDTH 16 0
BBX 16 16 0 -2
BITMAP
0000
0020
0020
0020
0020
0004
0004
0020
0020
0020
0020
0020
0004
0002
0000
0000
ENDCHAR
STARTCHAR char117
ENCODING 117
SWIDTH 1600 0
DWIDTH 16 0
BBX 16 16 0 -2
BITMAP
0000
0000
0000
0000
0202
0202
0202
0202
0202
0202
0202
0002
0042
0082
0000
0000
ENDCHAR
STARTCHAR char118
ENCODING 118
SWIDTH 1600 0
DWIDTH 16 0
BBX 16 16 0 -2
BITMAP
0000
0000
0000
0000
0202
0202
0202
0202
0202
0204
0108
0010
0020
0040
0000
0000
ENDCHAR
STARTCHAR char119
ENCODING 119
SWIDTH 1600 0
DWIDTH 16 0
BBX 16 16 0 -2
BITMAP
0000
0000
0000
0000
0401
0401
0401
0401
0441
0421
0001
0001
0102
0204
0000
0000
ENDCHAR
STARTCHAR char120
ENCODING 120
SWIDTH 1600 0
DWIDTH 16 0
BBX 16 16 0 -2
BITMAP
0000
0000
0000
0000
0402
0202
0104
0008
0010
0010
0008
0104
0202
0402
0000
0000
ENDCHAR
STARTCHAR char121
ENCODING 121
SWIDTH 1600 0
DWIDTH 16 0
BBX 16 16 0 -2
BITMAP
0000
0000
0000
0000
0202
0202
0202
0202
0202
0002
0002
0002
0004
0008
0010
0000
ENDCHAR
STARTCHAR char122
ENCODING 122
SWIDTH 1600 0
DWIDTH 16 0
BBX 16 16 0 -2
BITMAP
0000
0000
0000
0000
0002
0002
0004
0008
0010
0020
0040
0080
0002
0002
0000
0000
ENDCHAR
STARTCHAR char123
ENCODING 123
SWIDTH 1600 0
DWIDTH 16 0
BBX 16 16 0 -2
BITMAP
0000
0010
0020
0040
0040
0080
0100
0200
0100
0080
0040
0040
0020
0010
0000
0000
ENDCHAR
STARTCHAR char124
ENCODING 124
SWIDTH 1600 0
DWIDTH 16 0
BBX 16 16 0 -2
BITMAP
0000
0040
0040
0040
0040
0040
0040
0040
0040
0040
0040
0040
0040
0040
0000
0000
ENDCHAR
STARTCHAR char125
ENCODING 125
SWIDTH 1600 0
DWIDTH 16 0
BBX 16 16 0 -2
BITMAP
0000
0040
0020
0020
0020
0010
0004
0002
0004
0010
0020
0020
0020
0040
0000
0000
ENDCHAR
STARTCHAR char126
ENCODING 126
SWIDTH 1600 0
DWIDTH 16 0
BBX 16 16 0 -2
BITMAP
0000
0000
0000
0000
0000
0100
0082
0042
0802
1004
0008
0000
0000
0000
0000
0000
ENDCHAR
STARTCHAR char127
ENCODING 127
SWIDTH 1600 0
DWIDTH 16 0
BBX 16 16 0 -2
BITMAP
0000
0000
0000
0000
0000
0000
0000
0000
0000
0000
0000
0842
0842
0000
0000
0000
ENDCHAR
ENDFONT
